# xmcd
#
# Track frame offsets: 
#        150
#        28602
#        42082
#        70634
#        110566
#        128619
#        146347
#        165596
#        174212
#        214972
#        242409
#        273369
#        294852
#        314390
#
# Disc length: 4493 seconds
#
# Revision: 0
# Processed by: cddbd v1.5.1PL0 Copyright (c) Steve Scherf et al.
# Submitted via: ExactAudioCopy v0.95b2
#
DISCID=b9118b0e
DTITLE=Various Artist - Live! Collection [CD4) R&B: Blues Explosion
DYEAR=2005
DGENRE=R&B
TTITLE0=Ike and Tina Turner - Proud Mary
TTITLE1=Blues Brothers, The - Do You Love Me: Mother Popcorn
TTITLE2=B.B. King - The Thrill Is Gone
TTITLE3=Allman Brothers Band, The - Stormy Monday
TTITLE4=Lynyrd Skynyrd - Crossroads
TTITLE5=John Mayall - Hoochie Coochie Man (With Eric Clapton)
TTITLE6=Zucchero - Diavolo In Me
TTITLE7=James Brown - Papa's Got Brand New Bag
TTITLE8=Traffic - Give Me Some Lovin'
TTITLE9=Willie De Ville - Steady Drivin' Man
TTITLE10=Gary Moore - Still Got The Blues
TTITLE11=Steve Ray Vaughan - Superstition
TTITLE12=Albert King - Born Under A Bag Sign
TTITLE13=Jogn Lee Hooker - Crawlin' King Snake
EXTD=
EXTT0=
EXTT1=
EXTT2=
EXTT3=
EXTT4=
EXTT5=
EXTT6=
EXTT7=
EXTT8=
EXTT9=
EXTT10=
EXTT11=
EXTT12=
EXTT13=
PLAYORDER=
